<?xml version="1.0" encoding="UTF-8"?>
<svg xmlns="http://www.w3.org/2000/svg" version="1.1" width="400" height="400" viewBox="0 0 400 400"><rect x="0" y="0" width="400" height="400" fill="#fefefe"/><g transform="scale(7.018)"><g transform="translate(4,4)"><path fill-rule="evenodd" d="M8 0L8 4L9 4L9 5L8 5L8 7L9 7L9 8L10 8L10 9L11 9L11 10L8 10L8 9L7 9L7 8L4 8L4 9L3 9L3 10L4 10L4 13L5 13L5 14L6 14L6 15L8 15L8 16L5 16L5 15L4 15L4 14L3 14L3 12L1 12L1 11L0 11L0 19L2 19L2 18L6 18L6 19L5 19L5 20L4 20L4 19L3 19L3 20L0 20L0 23L1 23L1 24L0 24L0 25L2 25L2 27L3 27L3 28L4 28L4 29L0 29L0 30L1 30L1 32L2 32L2 31L3 31L3 30L4 30L4 33L5 33L5 34L6 34L6 35L7 35L7 36L5 36L5 37L7 37L7 38L5 38L5 39L9 39L9 41L8 41L8 42L10 42L10 43L8 43L8 45L10 45L10 46L11 46L11 47L12 47L12 48L11 48L11 49L12 49L12 48L14 48L14 49L15 49L15 48L14 48L14 46L15 46L15 47L16 47L16 46L17 46L17 48L16 48L16 49L20 49L20 47L19 47L19 48L18 48L18 46L19 46L19 44L18 44L18 45L15 45L15 44L14 44L14 43L13 43L13 42L14 42L14 41L15 41L15 43L16 43L16 44L17 44L17 43L18 43L18 42L17 42L17 43L16 43L16 41L17 41L17 38L16 38L16 39L15 39L15 37L16 37L16 36L17 36L17 37L18 37L18 41L20 41L20 44L21 44L21 45L20 45L20 46L21 46L21 49L22 49L22 48L23 48L23 49L26 49L26 48L25 48L25 47L23 47L23 45L25 45L25 46L26 46L26 47L27 47L27 48L28 48L28 47L29 47L29 46L30 46L30 48L29 48L29 49L30 49L30 48L31 48L31 49L33 49L33 48L34 48L34 49L39 49L39 48L40 48L40 47L42 47L42 46L43 46L43 47L44 47L44 45L45 45L45 47L46 47L46 49L49 49L49 48L48 48L48 47L49 47L49 46L48 46L48 45L49 45L49 44L48 44L48 42L46 42L46 41L47 41L47 40L48 40L48 41L49 41L49 40L48 40L48 39L47 39L47 38L45 38L45 37L47 37L47 36L48 36L48 38L49 38L49 36L48 36L48 35L46 35L46 36L45 36L45 37L44 37L44 36L43 36L43 35L42 35L42 32L43 32L43 33L44 33L44 35L45 35L45 33L44 33L44 32L46 32L46 33L47 33L47 31L45 31L45 30L47 30L47 28L48 28L48 29L49 29L49 27L47 27L47 26L46 26L46 25L47 25L47 23L46 23L46 22L48 22L48 21L49 21L49 20L48 20L48 21L47 21L47 19L46 19L46 18L48 18L48 17L49 17L49 15L48 15L48 14L46 14L46 13L47 13L47 12L48 12L48 13L49 13L49 11L47 11L47 10L45 10L45 9L49 9L49 8L45 8L45 9L44 9L44 8L43 8L43 9L42 9L42 10L41 10L41 11L39 11L39 10L40 10L40 9L41 9L41 8L40 8L40 7L41 7L41 6L40 6L40 7L39 7L39 5L36 5L36 7L35 7L35 5L34 5L34 4L35 4L35 3L37 3L37 2L35 2L35 1L34 1L34 0L29 0L29 1L28 1L28 0L23 0L23 1L22 1L22 3L20 3L20 7L21 7L21 4L22 4L22 9L23 9L23 10L22 10L22 12L23 12L23 13L25 13L25 11L27 11L27 9L28 9L28 10L29 10L29 14L28 14L28 12L26 12L26 14L27 14L27 15L26 15L26 16L25 16L25 14L24 14L24 16L23 16L23 14L21 14L21 13L20 13L20 12L19 12L19 10L18 10L18 9L20 9L20 10L21 10L21 9L20 9L20 8L17 8L17 6L16 6L16 5L15 5L15 3L16 3L16 4L17 4L17 3L19 3L19 2L20 2L20 1L21 1L21 0L20 0L20 1L19 1L19 2L16 2L16 0L12 0L12 1L15 1L15 2L14 2L14 3L12 3L12 4L11 4L11 6L10 6L10 7L9 7L9 5L10 5L10 4L9 4L9 0ZM37 0L37 1L38 1L38 2L39 2L39 4L40 4L40 3L41 3L41 0L40 0L40 1L38 1L38 0ZM10 1L10 2L11 2L11 1ZM23 1L23 4L27 4L27 8L28 8L28 9L31 9L31 8L32 8L32 6L31 6L31 5L32 5L32 4L34 4L34 3L33 3L33 2L34 2L34 1L33 1L33 2L31 2L31 1L29 1L29 2L28 2L28 1L26 1L26 3L24 3L24 2L25 2L25 1ZM27 2L27 3L28 3L28 5L31 5L31 4L32 4L32 3L31 3L31 4L29 4L29 3L30 3L30 2L29 2L29 3L28 3L28 2ZM12 5L12 6L11 6L11 7L12 7L12 6L13 6L13 7L14 7L14 8L13 8L13 9L12 9L12 8L11 8L11 9L12 9L12 11L14 11L14 12L15 12L15 13L17 13L17 11L18 11L18 10L17 10L17 9L16 9L16 8L15 8L15 7L16 7L16 6L15 6L15 7L14 7L14 6L13 6L13 5ZM18 5L18 7L19 7L19 5ZM23 5L23 8L26 8L26 5ZM24 6L24 7L25 7L25 6ZM28 6L28 7L29 7L29 8L30 8L30 7L31 7L31 6L30 6L30 7L29 7L29 6ZM33 6L33 9L34 9L34 10L32 10L32 11L31 11L31 12L32 12L32 11L35 11L35 9L34 9L34 8L35 8L35 7L34 7L34 6ZM37 6L37 7L38 7L38 8L39 8L39 7L38 7L38 6ZM0 8L0 9L1 9L1 10L2 10L2 8ZM14 8L14 9L13 9L13 10L14 10L14 9L15 9L15 8ZM6 9L6 10L7 10L7 11L6 11L6 12L8 12L8 13L9 13L9 11L8 11L8 10L7 10L7 9ZM24 9L24 11L23 11L23 12L24 12L24 11L25 11L25 10L26 10L26 9ZM43 9L43 11L41 11L41 13L40 13L40 15L39 15L39 14L38 14L38 12L39 12L39 11L38 11L38 10L36 10L36 11L37 11L37 14L36 14L36 13L34 13L34 12L33 12L33 13L34 13L34 17L32 17L32 16L31 16L31 15L32 15L32 13L31 13L31 15L30 15L30 14L29 14L29 15L28 15L28 17L27 17L27 16L26 16L26 17L25 17L25 18L23 18L23 17L22 17L22 15L20 15L20 13L18 13L18 15L20 15L20 17L21 17L21 18L19 18L19 17L16 17L16 19L15 19L15 20L14 20L14 19L13 19L13 18L15 18L15 17L14 17L14 16L17 16L17 14L16 14L16 15L14 15L14 13L13 13L13 12L11 12L11 11L10 11L10 15L9 15L9 16L8 16L8 17L6 17L6 18L7 18L7 19L6 19L6 20L5 20L5 21L6 21L6 22L9 22L9 23L10 23L10 25L9 25L9 27L4 27L4 25L3 25L3 24L2 24L2 25L3 25L3 27L4 27L4 28L5 28L5 32L8 32L8 31L9 31L9 32L10 32L10 33L9 33L9 34L11 34L11 33L12 33L12 35L10 35L10 36L9 36L9 35L8 35L8 36L7 36L7 37L8 37L8 38L9 38L9 37L10 37L10 38L11 38L11 39L10 39L10 40L11 40L11 39L12 39L12 41L14 41L14 38L12 38L12 37L11 37L11 36L12 36L12 35L13 35L13 37L15 37L15 36L14 36L14 35L13 35L13 33L14 33L14 34L15 34L15 35L16 35L16 34L17 34L17 35L18 35L18 34L20 34L20 37L19 37L19 36L18 36L18 37L19 37L19 40L20 40L20 41L22 41L22 40L20 40L20 37L21 37L21 39L22 39L22 38L23 38L23 37L25 37L25 34L26 34L26 35L28 35L28 36L27 36L27 38L26 38L26 39L25 39L25 38L24 38L24 40L26 40L26 39L28 39L28 41L27 41L27 42L29 42L29 41L32 41L32 39L33 39L33 38L34 38L34 42L31 42L31 43L27 43L27 44L28 44L28 45L29 45L29 44L31 44L31 45L32 45L32 47L31 47L31 48L32 48L32 47L33 47L33 45L34 45L34 47L35 47L35 48L36 48L36 47L35 47L35 46L37 46L37 47L38 47L38 48L39 48L39 47L38 47L38 45L35 45L35 44L33 44L33 45L32 45L32 43L35 43L35 42L37 42L37 44L39 44L39 46L40 46L40 40L42 40L42 39L43 39L43 40L45 40L45 41L46 41L46 39L45 39L45 38L44 38L44 37L43 37L43 36L41 36L41 35L37 35L37 36L38 36L38 37L39 37L39 38L41 38L41 39L38 39L38 38L35 38L35 37L33 37L33 38L32 38L32 34L33 34L33 33L32 33L32 30L33 30L33 29L34 29L34 31L35 31L35 29L34 29L34 28L36 28L36 27L37 27L37 29L36 29L36 31L37 31L37 33L36 33L36 32L34 32L34 35L33 35L33 36L36 36L36 34L38 34L38 32L39 32L39 34L41 34L41 33L40 33L40 32L41 32L41 31L43 31L43 32L44 32L44 29L45 29L45 28L46 28L46 26L45 26L45 27L43 27L43 28L44 28L44 29L43 29L43 30L41 30L41 29L42 29L42 28L41 28L41 27L39 27L39 29L40 29L40 30L39 30L39 31L37 31L37 30L38 30L38 25L40 25L40 23L38 23L38 20L39 20L39 21L40 21L40 22L41 22L41 21L43 21L43 22L44 22L44 20L41 20L41 21L40 21L40 18L41 18L41 17L40 17L40 18L39 18L39 19L38 19L38 17L35 17L35 14L36 14L36 15L37 15L37 16L41 16L41 15L42 15L42 16L43 16L43 17L44 17L44 18L46 18L46 17L44 17L44 16L43 16L43 15L45 15L45 16L46 16L46 15L45 15L45 13L46 13L46 11L45 11L45 13L44 13L44 9ZM16 10L16 11L15 11L15 12L16 12L16 11L17 11L17 10ZM42 12L42 13L41 13L41 14L42 14L42 15L43 15L43 14L44 14L44 13L43 13L43 12ZM6 13L6 14L7 14L7 13ZM1 14L1 15L3 15L3 17L4 17L4 15L3 15L3 14ZM11 14L11 15L10 15L10 16L9 16L9 17L8 17L8 20L9 20L9 21L10 21L10 23L11 23L11 22L12 22L12 24L11 24L11 27L10 27L10 28L9 28L9 29L10 29L10 28L11 28L11 27L12 27L12 28L13 28L13 29L14 29L14 30L15 30L15 31L16 31L16 30L17 30L17 32L16 32L16 33L15 33L15 32L14 32L14 33L15 33L15 34L16 34L16 33L19 33L19 32L22 32L22 31L21 31L21 29L20 29L20 28L18 28L18 30L17 30L17 29L15 29L15 28L16 28L16 25L17 25L17 27L18 27L18 25L19 25L19 24L18 24L18 23L17 23L17 22L16 22L16 23L14 23L14 24L13 24L13 22L15 22L15 21L16 21L16 20L15 20L15 21L13 21L13 19L12 19L12 18L13 18L13 16L14 16L14 15L13 15L13 14ZM11 15L11 17L12 17L12 16L13 16L13 15ZM29 15L29 17L28 17L28 18L27 18L27 17L26 17L26 19L27 19L27 20L26 20L26 22L22 22L22 23L21 23L21 24L22 24L22 25L20 25L20 26L19 26L19 27L21 27L21 26L22 26L22 28L25 28L25 27L26 27L26 28L27 28L27 29L28 29L28 27L29 27L29 28L30 28L30 29L29 29L29 30L27 30L27 31L26 31L26 32L25 32L25 29L22 29L22 30L23 30L23 32L25 32L25 33L22 33L22 34L25 34L25 33L26 33L26 34L27 34L27 33L28 33L28 35L29 35L29 36L31 36L31 34L32 34L32 33L31 33L31 32L30 32L30 33L28 33L28 31L31 31L31 30L32 30L32 29L33 29L33 28L34 28L34 27L36 27L36 26L37 26L37 25L38 25L38 24L37 24L37 23L33 23L33 22L34 22L34 21L33 21L33 19L34 19L34 20L36 20L36 22L37 22L37 19L34 19L34 18L33 18L33 19L31 19L31 16L30 16L30 15ZM47 16L47 17L48 17L48 16ZM9 17L9 18L10 18L10 19L9 19L9 20L11 20L11 18L10 18L10 17ZM17 18L17 19L19 19L19 20L18 20L18 21L20 21L20 22L21 22L21 21L20 21L20 19L19 19L19 18ZM22 18L22 21L25 21L25 19L23 19L23 18ZM28 18L28 21L27 21L27 22L28 22L28 21L29 21L29 22L30 22L30 21L32 21L32 22L33 22L33 21L32 21L32 20L31 20L31 19L30 19L30 18ZM42 18L42 19L43 19L43 18ZM29 19L29 20L30 20L30 19ZM45 19L45 22L46 22L46 19ZM3 20L3 21L1 21L1 22L2 22L2 23L4 23L4 22L3 22L3 21L4 21L4 20ZM6 20L6 21L7 21L7 20ZM5 23L5 26L8 26L8 23ZM23 23L23 26L26 26L26 23ZM28 23L28 26L29 26L29 25L31 25L31 26L32 26L32 27L30 27L30 28L31 28L31 29L32 29L32 27L33 27L33 26L32 26L32 24L31 24L31 23L30 23L30 24L29 24L29 23ZM41 23L41 26L44 26L44 23ZM45 23L45 25L46 25L46 23ZM6 24L6 25L7 25L7 24ZM12 24L12 25L13 25L13 24ZM15 24L15 25L14 25L14 26L12 26L12 27L14 27L14 28L15 28L15 25L16 25L16 24ZM24 24L24 25L25 25L25 24ZM34 24L34 26L36 26L36 25L35 25L35 24ZM42 24L42 25L43 25L43 24ZM0 26L0 28L1 28L1 26ZM6 28L6 29L8 29L8 28ZM11 29L11 31L10 31L10 32L11 32L11 31L12 31L12 29ZM6 30L6 31L7 31L7 30ZM40 30L40 31L41 31L41 30ZM12 32L12 33L13 33L13 32ZM26 32L26 33L27 33L27 32ZM48 32L48 33L49 33L49 32ZM0 33L0 35L3 35L3 36L0 36L0 37L1 37L1 40L0 40L0 41L3 41L3 40L4 40L4 39L2 39L2 38L4 38L4 35L3 35L3 33ZM6 33L6 34L7 34L7 33ZM20 33L20 34L21 34L21 33ZM35 33L35 34L36 34L36 33ZM29 34L29 35L30 35L30 34ZM21 35L21 37L22 37L22 35ZM23 35L23 36L24 36L24 35ZM8 36L8 37L9 37L9 36ZM29 37L29 38L28 38L28 39L29 39L29 40L31 40L31 37ZM41 37L41 38L43 38L43 39L44 39L44 38L43 38L43 37ZM35 39L35 41L38 41L38 43L39 43L39 41L38 41L38 40L37 40L37 39ZM6 40L6 41L7 41L7 40ZM15 40L15 41L16 41L16 40ZM23 41L23 44L26 44L26 41ZM41 41L41 44L44 44L44 41ZM11 42L11 43L10 43L10 45L12 45L12 46L14 46L14 45L12 45L12 44L13 44L13 43L12 43L12 42ZM24 42L24 43L25 43L25 42ZM42 42L42 43L43 43L43 42ZM11 43L11 44L12 44L12 43ZM45 44L45 45L46 45L46 47L47 47L47 45L46 45L46 44ZM21 45L21 46L22 46L22 45ZM41 45L41 46L42 46L42 45ZM8 47L8 49L9 49L9 47ZM43 48L43 49L45 49L45 48ZM0 0L0 7L7 7L7 0ZM1 1L1 6L6 6L6 1ZM2 2L2 5L5 5L5 2ZM42 0L42 7L49 7L49 0ZM43 1L43 6L48 6L48 1ZM44 2L44 5L47 5L47 2ZM0 42L0 49L7 49L7 42ZM1 43L1 48L6 48L6 43ZM2 44L2 47L5 47L5 44Z" fill="#000000"/></g></g></svg>
